# Created by Kenney (www.kenney.nl)

mtllib Crate.mtl

g mergedBlocks

v -0.4455 0.1765281 -0.3184719
v -0.4455 0.1765281 -0.2388539
v -0.495 0.1765281 -0.3184719
v -0.495 0.1765281 0.3184719
v -0.3762 0.1765281 0.3184719
v -0.3762 0.1765281 -0.2388539
v -0.3762 0.7338539 0.3184719
v -0.4455 0.7338539 0.3184719
v -0.495 0.99 -0.495
v -0.495 9.733216E-14 -0.495
v -0.495 -9.733216E-14 0.495
v -0.495 0.8134719 0.3184719
v -0.495 0.8134719 -0.3184719
v -0.495 0.99 0.495
v -0.4455 0.8134719 0.3184719
v -0.4455 0.8134719 0.2388539
v -0.3762 0.8134719 -0.3184719
v -0.3762 0.8134719 0.2388539
v -0.3762 0.2561461 -0.3184719
v -0.4455 0.2561461 -0.3184719
v 0.2388539 0.0495 -0.3184719
v 0.2388539 0.1188 -0.3184719
v -0.3184719 0.0495 0.2388539
v -0.3184719 0.1188 0.2388539
v 0.2388539 0.8712 -0.3184719
v 0.2388539 0.9405 -0.3184719
v -0.3184719 0.8712 0.2388539
v -0.3184719 0.9405 0.2388539
v 0.495 9.733216E-14 -0.495
v -0.3184719 0.1765281 -0.495
v -0.3184719 0.8134719 -0.495
v 0.3184719 0.8134719 -0.495
v 0.3184719 0.1765281 -0.495
v 0.495 0.99 -0.495
v 0.3184719 0.0495 -0.2388539
v 0.3184719 0.0495 -0.3184719
v -0.2388539 0.0495 0.3184719
v -0.3184719 0.0495 0.3184719
v -0.3184719 0.9405 0.3184719
v -0.2388539 0.9405 0.3184719
v -0.3184719 0.99 0.3184719
v 0.3184719 0.99 0.3184719
v 0.3184719 0.8712 0.3184719
v -0.2388539 0.8712 0.3184719
v 0.3184719 0.8712 -0.2388539
v 0.3184719 0.9405 -0.2388539
v 0.3184719 0.99 -0.3184719
v 0.3184719 0.9405 -0.3184719
v -0.3184719 0.8712 -0.3184719
v -0.3184719 0.99 -0.3184719
v 0.3184719 6.262491E-14 -0.3184719
v -0.3184719 6.262491E-14 -0.3184719
v -0.3184719 0.1188 -0.3184719
v -0.3184719 -6.262491E-14 0.3184719
v 0.495 0.99 0.495
v 0.3184719 -6.262491E-14 0.3184719
v 0.495 -9.733216E-14 0.495
v 0.3184719 0.1188 -0.2388539
v 0.3184719 0.1188 0.3184719
v -0.2388539 0.1188 0.3184719
v 0.3184719 0.8134719 -0.3762
v -0.2388539 0.8134719 -0.3762
v -0.2388539 0.8134719 -0.4455
v -0.3184719 0.8134719 -0.4455
v 0.3184719 0.1765281 -0.4455
v 0.3184719 0.2561461 -0.4455
v 0.3184719 0.2561461 -0.3762
v 0.2388539 0.1765281 -0.4455
v -0.3184719 0.7338539 -0.4455
v -0.3184719 0.8134719 0.3762
v -0.3184719 0.2561461 0.3762
v -0.3184719 0.8134719 0.495
v -0.3184719 0.2561461 0.4455
v -0.3184719 0.1765281 0.4455
v -0.3184719 0.1765281 0.495
v -0.3184719 0.1765281 -0.3762
v 0.2388539 0.1765281 -0.3762
v -0.2388539 0.1765281 0.4455
v 0.3184719 0.7338539 0.4455
v 0.2388539 0.8134719 0.4455
v 0.3184719 0.8134719 0.4455
v -0.3184719 0.7338539 -0.3762
v 0.3184719 0.7338539 0.3762
v -0.2388539 0.1765281 0.3762
v 0.2388539 0.8134719 0.3762
v 0.3762 0.2561461 0.3184719
v 0.4455 0.2561461 0.3184719
v 0.3762 0.8134719 0.3184719
v 0.495 0.8134719 0.3184719
v 0.495 0.1765281 0.3184719
v 0.4455 0.1765281 0.3184719
v 0.3184719 0.1765281 0.495
v 0.3184719 0.8134719 0.495
v 0.3184719 0.1765281 0.3762
v 0.4455 0.8134719 -0.3184719
v 0.4455 0.7338539 -0.3184719
v 0.4455 0.8134719 -0.2388539
v 0.4455 0.1765281 0.2388539
v 0.3762 0.8134719 -0.2388539
v 0.3762 0.1765281 0.2388539
v 0.3762 0.7338539 -0.3184719
v 0.495 0.1765281 -0.3184719
v 0.3762 0.1765281 -0.3184719
v 0.495 0.8134719 -0.3184719

vn 0 1 0
vn 0 -0.7071068 0.7071068
vn -1 0 0
vn 0 -1 0
vn 0 0 1
vn -0.7071068 0 -0.7071068
vn 0 0 -1
vn 0 0.7071068 -0.7071068
vn 1 0 0
vn 0.7071068 0 0.7071068
vn 0.7071068 0.7071068 0
vn -0.7071068 -0.7071068 0
vn 0.7071068 -0.7071068 0
vn -0.7071068 0.7071068 0
vn 0 0.7071068 0.7071068
vn 0 -0.7071068 -0.7071068

vt 0.4455 -0.3184719
vt 0.4455 -0.2388539
vt 0.495 -0.3184719
vt 0.495 0.3184719
vt 0.3762 0.3184719
vt 0.3762 -0.2388539
vt -0.3762 0.1765281
vt -0.4455 0.1765281
vt -0.3762 0.7338539
vt -0.4455 0.7338539
vt -0.495 0.99
vt -0.3184719 0.1765281
vt -0.495 9.733216E-14
vt 0.495 -9.733216E-14
vt 0.3184719 0.1765281
vt 0.3184719 0.8134719
vt -0.3184719 0.8134719
vt 0.495 0.99
vt -0.3762 0.2561461
vt -0.4455 0.2561461
vt -0.3762 0.8134719
vt -0.495 0.8134719
vt -0.495 0.1765281
vt -0.3184719 0.2561461
vt -0.2388539 0.1765281
vt 0.2388539 0.8134719
vt 0.3184719 0.7338539
vt -0.2388539 0.0495
vt -0.2388539 0.1188
vt 0.3184719 0.0495
vt 0.3184719 0.1188
vt -0.2388539 0.8712
vt -0.2388539 0.9405
vt 0.3184719 0.8712
vt 0.3184719 0.9405
vt 0.495 0.1765281
vt 0.3762 0.1765281
vt 0.495 0.8134719
vt 0.4455 0.7338539
vt 0.4455 0.8134719
vt 0.3762 0.7338539
vt 0.495 9.733216E-14
vt -0.3184719 0.2388539
vt -0.3184719 0.3184719
vt 0.2388539 -0.3184719
vt -0.2388539 0.3184719
vt 0.3184719 -0.2388539
vt 0.3184719 -0.3184719
vt 0.2388539 0.9405
vt 0.3184719 0.99
vt -0.3184719 0.99
vt -0.3184719 0.8712
vt 0.2388539 0.8712
vt 0.4455 0.2561461
vt 0.3762 0.2561461
vt 0.3762 0.8134719
vt -0.3184719 0.9405
vt 0.3184719 6.262491E-14
vt -0.3184719 6.262491E-14
vt 0.2388539 0.0495
vt -0.3184719 0.1188
vt 0.2388539 0.1188
vt -0.3184719 -0.2388539
vt 0.2388539 0.3184719
vt -0.3184719 -0.3184719
vt -0.2388539 -0.3184719
vt 0.3184719 0.2388539
vt 0.3184719 0.3184719
vt -0.3184719 -6.262491E-14
vt -0.3184719 0.0495
vt -0.495 -0.495
vt 0.495 -0.495
vt 0.495 0.495
vt -0.495 0.495
vt 0.3184719 -6.262491E-14
vt -0.3184719 0.3762
vt -0.3184719 0.495
vt 0.2388539 0.3762
vt 0.2388539 0.4455
vt 0.3184719 0.495
vt 0.3184719 0.4455
vt -0.3184719 -0.4455
vt -0.3184719 -0.3762
vt 0.2388539 -0.4455
vt 0.2388539 -0.3762
vt -0.2388539 -0.4455
vt -0.3184719 -0.495
vt 0.3184719 -0.495
vt 0.3184719 -0.3762
vt -0.2388539 -0.3762
vt -0.2388539 0.3762
vt -0.2388539 0.4455
vt 0.3184719 0.3762
vt -0.495 -9.733216E-14
vt -0.495 -0.3184719
vt -0.495 0.3184719
vt -0.3762 -0.3184719
vt -0.4455 0.2388539
vt -0.3762 0.2388539
vt -0.4455 0.3184719

usemtl wood(Clone)

f 3/3/1 2/2/1 1/1/1
f 4/4/1 2/2/1 3/3/1
f 5/5/1 2/2/1 4/4/1
f 2/2/1 5/5/1 6/6/1
f 7/9/2 2/8/2 6/7/2
f 2/8/2 7/9/2 8/10/2
f 10/13/3 3/12/3 9/11/3
f 3/12/3 10/13/3 11/14/3
f 3/12/3 11/14/3 4/15/3
f 4/15/3 11/14/3 12/16/3
f 13/17/3 9/11/3 3/12/3
f 9/11/3 13/17/3 14/18/3
f 14/18/3 13/17/3 12/16/3
f 14/18/3 12/16/3 11/14/3
f 12/3/4 16/2/4 15/1/4
f 13/4/4 16/2/4 12/3/4
f 17/5/4 16/2/4 13/4/4
f 16/2/4 17/5/4 18/6/4
f 17/21/5 20/20/5 19/19/5
f 13/22/5 20/20/5 17/21/5
f 3/23/5 20/20/5 13/22/5
f 20/20/5 3/23/5 1/8/5
f 2/25/3 20/24/3 1/12/3
f 20/24/3 2/25/3 16/26/3
f 16/26/3 2/25/3 8/27/3
f 16/26/3 8/27/3 15/16/3
f 23/30/6 22/29/6 21/28/6
f 22/29/6 23/30/6 24/31/6
f 27/34/6 26/33/6 25/32/6
f 26/33/6 27/34/6 28/35/6
f 12/38/7 5/37/7 4/36/7
f 5/37/7 12/38/7 8/39/7
f 8/39/7 12/38/7 15/40/7
f 7/41/7 5/37/7 8/39/7
f 10/42/7 30/15/7 29/13/7
f 30/15/7 10/42/7 9/18/7
f 30/15/7 9/18/7 31/16/7
f 31/16/7 9/18/7 32/17/7
f 33/12/7 29/13/7 30/15/7
f 29/13/7 33/12/7 34/11/7
f 34/11/7 33/12/7 32/17/7
f 34/11/7 32/17/7 9/18/7
f 37/45/4 36/44/4 35/43/4
f 36/44/4 37/45/4 21/46/4
f 21/46/4 37/45/4 23/47/4
f 23/47/4 37/45/4 38/48/4
f 41/50/7 40/49/7 39/35/7
f 42/51/7 40/49/7 41/50/7
f 43/52/7 40/49/7 42/51/7
f 40/49/7 43/52/7 44/53/7
f 16/40/8 19/55/8 20/54/8
f 19/55/8 16/40/8 18/56/8
f 43/34/3 46/33/3 45/32/3
f 42/50/3 46/33/3 43/34/3
f 47/51/3 46/33/3 42/50/3
f 46/33/3 47/51/3 48/57/3
f 50/50/9 27/32/9 49/34/9
f 27/32/9 50/50/9 28/33/9
f 28/33/9 50/50/9 41/51/9
f 28/33/9 41/51/9 39/57/9
f 36/30/5 52/59/5 51/58/5
f 52/59/5 36/30/5 21/60/5
f 52/59/5 21/60/5 53/61/5
f 53/61/5 21/60/5 22/62/5
f 47/50/5 26/49/5 48/35/5
f 50/51/5 26/49/5 47/50/5
f 49/52/5 26/49/5 50/51/5
f 26/49/5 49/52/5 25/53/5
f 48/65/1 40/64/1 46/63/1
f 40/64/1 48/65/1 26/66/1
f 40/64/1 26/66/1 28/67/1
f 40/64/1 28/67/1 39/68/1
f 24/29/9 23/28/9 53/31/9
f 54/69/9 53/31/9 23/28/9
f 53/31/9 54/69/9 52/58/9
f 54/69/9 23/28/9 38/70/9
f 34/71/1 47/65/1 42/44/1
f 47/65/1 34/71/1 9/72/1
f 47/65/1 9/72/1 50/48/1
f 50/48/1 9/72/1 14/73/1
f 55/74/1 42/44/1 14/73/1
f 42/44/1 55/74/1 34/71/1
f 14/73/1 42/44/1 41/68/1
f 14/73/1 41/68/1 50/48/1
f 57/71/4 56/65/4 29/74/4
f 56/65/4 57/71/4 11/72/4
f 56/65/4 11/72/4 54/48/4
f 54/48/4 11/72/4 52/68/4
f 51/44/4 29/74/4 56/65/4
f 29/74/4 51/44/4 10/73/4
f 10/73/4 51/44/4 52/68/4
f 10/73/4 52/68/4 11/72/4
f 56/75/3 36/70/3 51/59/3
f 36/70/3 56/75/3 35/28/3
f 35/28/3 56/75/3 58/29/3
f 58/29/3 56/75/3 59/31/3
f 38/30/7 56/69/7 54/75/7
f 56/69/7 38/30/7 37/60/7
f 56/69/7 37/60/7 59/61/7
f 59/61/7 37/60/7 60/62/7
f 46/35/10 44/32/10 45/34/10
f 44/32/10 46/35/10 40/33/10
f 62/78/4 32/77/4 61/76/4
f 32/77/4 62/78/4 63/79/4
f 32/77/4 63/79/4 31/80/4
f 31/80/4 63/79/4 64/81/4
f 65/8/3 32/22/3 33/23/3
f 32/22/3 65/8/3 66/20/3
f 32/22/3 66/20/3 61/21/3
f 61/21/3 66/20/3 67/19/3
f 63/84/11 67/83/11 66/82/11
f 67/83/11 63/84/11 62/85/11
f 69/27/7 65/12/7 68/25/7
f 65/12/7 69/27/7 66/24/7
f 66/24/7 69/27/7 63/26/7
f 63/26/7 69/27/7 64/16/7
f 58/31/10 37/28/10 35/30/10
f 37/28/10 58/31/10 60/29/10
f 72/22/9 71/19/9 70/21/9
f 71/19/9 72/22/9 73/20/9
f 73/20/9 72/22/9 74/8/9
f 74/8/9 72/22/9 75/23/9
f 33/87/1 68/86/1 65/82/1
f 68/86/1 33/87/1 30/88/1
f 68/86/1 30/88/1 76/89/1
f 76/89/1 77/90/1 68/86/1
f 79/27/5 74/12/5 78/25/5
f 74/12/5 79/27/5 73/24/5
f 73/24/5 79/27/5 80/26/5
f 80/26/5 79/27/5 81/16/5
f 77/7/12 69/10/12 68/8/12
f 69/10/12 77/7/12 82/9/12
f 64/40/9 30/36/9 31/38/9
f 30/36/9 64/40/9 69/39/9
f 30/36/9 69/39/9 76/37/9
f 76/37/9 69/39/9 82/41/9
f 79/10/13 84/7/13 83/9/13
f 84/7/13 79/10/13 78/8/13
f 71/93/14 80/92/14 85/91/14
f 80/92/14 71/93/14 73/81/14
f 88/21/7 87/20/7 86/19/7
f 89/22/7 87/20/7 88/21/7
f 90/23/7 87/20/7 89/22/7
f 87/20/7 90/23/7 91/8/7
f 57/14/5 92/15/5 11/94/5
f 92/15/5 57/14/5 55/18/5
f 92/15/5 55/18/5 93/16/5
f 93/16/5 55/18/5 72/17/5
f 75/12/5 11/94/5 92/15/5
f 11/94/5 75/12/5 14/11/5
f 14/11/5 75/12/5 72/17/5
f 14/11/5 72/17/5 55/18/5
f 72/88/4 81/82/4 93/87/4
f 81/82/4 72/88/4 80/86/4
f 80/86/4 72/88/4 85/90/4
f 85/90/4 72/88/4 70/89/4
f 84/78/1 78/79/1 94/76/1
f 75/80/1 94/76/1 78/79/1
f 94/76/1 75/80/1 92/77/1
f 75/80/1 78/79/1 74/81/1
f 97/26/9 96/27/9 95/16/9
f 96/27/9 97/26/9 98/25/9
f 98/25/9 97/26/9 87/24/9
f 98/25/9 87/24/9 91/12/9
f 97/40/15 86/55/15 87/54/15
f 86/55/15 97/40/15 99/56/15
f 101/9/16 98/8/16 100/7/16
f 98/8/16 101/9/16 96/10/16
f 104/38/5 103/37/5 102/36/5
f 103/37/5 104/38/5 96/39/5
f 96/39/5 104/38/5 95/40/5
f 101/41/5 103/37/5 96/39/5
f 92/36/3 83/41/3 94/37/3
f 83/41/3 92/36/3 79/39/3
f 79/39/3 92/36/3 81/40/3
f 81/40/3 92/36/3 93/38/3
f 88/97/4 104/96/4 89/95/4
f 104/96/4 88/97/4 97/98/4
f 97/98/4 88/97/4 99/99/4
f 95/100/4 104/96/4 97/98/4
f 102/95/1 91/100/1 90/96/1
f 91/100/1 102/95/1 98/98/1
f 98/98/1 102/95/1 103/97/1
f 98/98/1 103/97/1 100/99/1
f 34/18/9 104/16/9 29/42/9
f 104/16/9 34/18/9 55/11/9
f 104/16/9 55/11/9 89/17/9
f 89/17/9 55/11/9 90/12/9
f 102/15/9 29/42/9 104/16/9
f 29/42/9 102/15/9 57/94/9
f 57/94/9 102/15/9 90/12/9
f 57/94/9 90/12/9 55/11/9

usemtl woodDark(Clone)

f 18/26/3 17/17/3 19/24/3
f 7/27/3 6/25/3 5/15/3
f 60/45/4 58/43/4 59/65/4
f 44/64/1 43/44/1 45/63/1
f 53/68/4 22/46/4 24/47/4
f 49/48/1 27/67/1 25/66/1
f 61/17/7 67/24/7 62/26/7
f 82/27/7 77/25/7 76/15/7
f 83/27/5 84/25/5 94/15/5
f 86/24/9 99/26/9 88/17/9
f 70/17/5 71/24/5 85/26/5
f 100/25/9 103/15/9 101/27/9

