# Created by Kenney (www.kenney.nl)

mtllib SmallBarrier.mtl

g wallWoodSide

v -0.525 1 -0.06
v -0.575 1 -0.06
v -0.525 4.511946E-15 -0.06
v -0.575 4.511946E-15 -0.06
v -0.575 1 0.09999999
v -0.525 1 0.09999999
v -0.575 0 0.09999999
v -0.525 0 0.09999999
v -0.6 0 0.09999999
v -0.6 0 0.2
v -0.5 0 0.09999999
v -0.5 0 0.2
v -0.6 1 0.2
v -0.5 1 0.2
v -0.6 1 0.09999999
v -0.5 1 0.09999999

vn 0 0 -1
vn 0 1 0
vn -1 0 0
vn 1 0 0
vn 0 -1 0
vn 0 0 1

vt 0.525 1
vt 0.575 1
vt 0.525 4.511946E-15
vt 0.575 4.511946E-15
vt 0.575 0.09999999
vt 0.575 -0.06
vt 0.525 0.09999999
vt 0.525 -0.06
vt 0.09999999 1
vt 0.09999999 0
vt -0.06 1
vt -0.06 4.511946E-15
vt -0.09999999 0
vt -0.09999999 1
vt 0.06 4.511946E-15
vt 0.06 1
vt 0.575 0.06
vt 0.575 -0.09999999
vt 0.525 0.06
vt 0.525 -0.09999999
vt 0.6 -0.09999999
vt 0.6 -0.2
vt 0.5 -0.09999999
vt 0.5 -0.2
vt -0.6 1
vt -0.5 1
vt -0.6 0
vt -0.5 0
vt 0.2 1
vt 0.2 0
vt 0.6 1
vt 0.575 0
vt 0.6 0
vt -0.2 0
vt -0.2 1
vt 0.6 0.09999999
vt 0.6 0.2
vt 0.5 0.2
vt 0.5 0.09999999
vt 0.5 1
vt 0.5 0
vt 0.525 0

usemtl wood(Clone)

f 3/3/1 2/2/1 1/1/1
f 2/2/1 3/3/1 4/4/1
f 6/7/2 2/6/2 5/5/2
f 2/6/2 6/7/2 1/8/2
f 2/11/3 7/10/3 5/9/3
f 7/10/3 2/11/3 4/12/3
f 3/15/4 6/14/4 8/13/4
f 6/14/4 3/15/4 1/16/4
f 3/19/5 7/18/5 4/17/5
f 7/18/5 3/19/5 8/20/5

usemtl wood(Clone)

f 7/18/5 10/22/5 9/21/5
f 8/20/5 10/22/5 7/18/5
f 11/23/5 10/22/5 8/20/5
f 10/22/5 11/23/5 12/24/5
f 10/27/6 14/26/6 13/25/6
f 14/26/6 10/27/6 12/28/6
f 15/9/3 10/30/3 13/29/3
f 10/30/3 15/9/3 9/10/3
f 7/32/1 15/31/1 5/2/1
f 15/31/1 7/32/1 9/33/1
f 11/13/4 14/35/4 12/34/4
f 14/35/4 11/13/4 16/14/4
f 13/37/2 5/5/2 15/36/2
f 13/37/2 6/7/2 5/5/2
f 14/38/2 6/7/2 13/37/2
f 6/7/2 14/38/2 16/39/2
f 11/41/1 6/1/1 16/40/1
f 6/1/1 11/41/1 8/42/1

g barrierWall

v -0.25 0.7738 0.101475
v -0.25 0.8312 0.09308028
v 0 0.8312 0.09308028
v 0 0.7738 0.101475
v -0.25 0.7 0.123
v -0.25 0.7246 0.123
v 0 0.7246 0.123
v 0 0.7 0.123
v 0 0.7 0
v 0 0.7246 0
v -0.25 0.7246 0
v -0.25 0.7 0
v 0 0.7738 0.02152503
v 0 0.8312 0.02991974
v -0.25 0.8312 0.02991974
v -0.25 0.7738 0.02152503
v 0.25 0.7246 0.123
v 0.25 0.7738 0.101475
v 0.5 0.7738 0.101475
v 0.5 0.7246 0.123
v 0.5 0.7 0.123
v 0.5 0.8312 0.09308028
v 0.5 0.8312 0.02991974
v 0.5 0.7738 0.02152503
v 0.5 0.7 0
v 0.5 0.7246 0
v 0.25 0.8312 0.02991974
v 0.25 0.7738 0.02152503
v 0.25 0.7 0
v 0.25 0.7 0.123
v 0.25 0.8312 0.09308028
v 0.25 0.7246 0
v -0.5 0.7738 0.101475
v -0.5 0.7246 0.123
v -0.5 0.7 0.123
v -0.5 0.8312 0.02991974
v -0.5 0.8312 0.09308028
v -0.5 0.7738 0.02152503
v -0.5 0.7246 0
v -0.5 0.7 0

vn 0 0.1447106 0.9894741
vn 0 0.1447106 -0.9894741
vn 0 0.4008189 0.9161574
vn 0 0.4008189 -0.9161574

vt -0.25 0.7738
vt -0.25 0.8312
vt 0 0.8312
vt 0 0.7738
vt -0.25 0.7
vt -0.25 0.7246
vt 0 0.7246
vt 0 0.7
vt 0.25 0.7246
vt 0.25 0.7
vt 0.25 0.8312
vt 0.25 0.7738
vt 0 0.09308028
vt 0.25 0.09308028
vt 0.25 0.02991974
vt 0 0.02991974
vt 0 0
vt 0.25 0
vt 0.25 -0.123
vt 0 -0.123
vt 0.5 0.7738
vt 0.5 0.7246
vt -0.123 0.7
vt -0.123 0.7246
vt -0.101475 0.7738
vt -0.09308028 0.8312
vt -0.02991974 0.8312
vt -0.02152503 0.7738
vt -0.5 0.7738
vt -0.5 0.8312
vt -0.25 0
vt -0.25 -0.123
vt -0.5 -0.123
vt 0.5 0.7
vt -0.5 0.09308028
vt -0.25 0.09308028
vt -0.25 0.02991974
vt -0.5 0.02991974
vt 0.5 0.8312
vt -0.5 0.7246
vt -0.5 0.7
vt 0.101475 0.7738
vt 0.123 0.7246
vt 0.123 0.7
vt 0.02991974 0.8312
vt 0.09308028 0.8312
vt 0.02152503 0.7738
vt 0.5 0.09308028
vt 0.5 0.02991974
vt 0.5 -0.123

usemtl grey(Clone)

f 19/45/7 18/44/7 17/43/7
f 17/43/7 20/46/7 19/45/7
f 23/49/6 22/48/6 21/47/6
f 21/47/6 24/50/6 23/49/6
f 27/51/1 26/49/1 25/50/1
f 25/50/1 28/52/1 27/51/1
f 31/53/8 30/45/8 29/46/8
f 29/46/8 32/54/8 31/53/8
f 20/46/9 17/43/9 22/48/9
f 22/48/9 23/49/9 20/46/9
f 31/57/2 18/56/2 19/55/2
f 19/55/2 30/58/2 31/57/2
f 32/54/10 29/46/10 26/49/10
f 26/49/10 27/51/10 32/54/10
f 21/61/5 28/60/5 25/59/5
f 25/59/5 24/62/5 21/61/5
f 35/63/9 34/54/9 33/51/9
f 33/51/9 36/64/9 35/63/9
f 35/67/4 36/66/4 37/65/4
f 39/69/4 38/68/4 35/67/4
f 39/69/4 35/67/4 37/65/4
f 40/70/4 39/69/4 37/65/4
f 40/70/4 37/65/4 41/50/4
f 41/50/4 42/49/4 40/70/4
f 43/44/8 39/72/8 40/71/8
f 40/71/8 44/43/8 43/44/8
f 46/74/5 45/73/5 41/28/5
f 41/28/5 37/75/5 46/74/5
f 36/64/6 33/51/6 46/52/6
f 46/52/6 37/76/6 36/64/6
f 43/79/2 47/78/2 38/77/2
f 38/77/2 39/80/2 43/79/2
f 38/81/7 47/53/7 34/54/7
f 34/54/7 35/63/7 38/81/7
f 44/43/10 40/71/10 42/82/10
f 42/82/10 48/48/10 44/43/10
f 48/48/1 42/82/1 41/83/1
f 41/83/1 45/47/1 48/48/1
f 19/45/7 18/44/7 17/43/7
f 17/43/7 20/46/7 19/45/7
f 23/49/6 22/48/6 21/47/6
f 21/47/6 24/50/6 23/49/6
f 27/51/1 26/49/1 25/50/1
f 25/50/1 28/52/1 27/51/1
f 31/53/8 30/45/8 29/46/8
f 29/46/8 32/54/8 31/53/8
f 20/46/9 17/43/9 22/48/9
f 22/48/9 23/49/9 20/46/9
f 31/57/2 18/56/2 19/55/2
f 19/55/2 30/58/2 31/57/2
f 32/54/10 29/46/10 26/49/10
f 26/49/10 27/51/10 32/54/10
f 21/61/5 28/60/5 25/59/5
f 25/59/5 24/62/5 21/61/5
f 35/63/9 34/54/9 33/51/9
f 33/51/9 36/64/9 35/63/9
f 35/67/4 36/66/4 37/65/4
f 39/69/4 38/68/4 35/67/4
f 39/69/4 35/67/4 37/65/4
f 40/70/4 39/69/4 37/65/4
f 40/70/4 37/65/4 41/50/4
f 41/50/4 42/49/4 40/70/4
f 43/44/8 39/72/8 40/71/8
f 40/71/8 44/43/8 43/44/8
f 46/74/5 45/73/5 41/28/5
f 41/28/5 37/75/5 46/74/5
f 36/64/6 33/51/6 46/52/6
f 46/52/6 37/76/6 36/64/6
f 43/79/2 47/78/2 38/77/2
f 38/77/2 39/80/2 43/79/2
f 38/81/7 47/53/7 34/54/7
f 34/54/7 35/63/7 38/81/7
f 44/43/10 40/71/10 42/82/10
f 42/82/10 48/48/10 44/43/10
f 48/48/1 42/82/1 41/83/1
f 41/83/1 45/47/1 48/48/1

usemtl red(Clone)

f 51/86/3 50/85/3 49/84/3
f 49/84/3 53/88/3 52/87/3
f 51/86/3 49/84/3 52/87/3
f 51/86/3 52/87/3 54/89/3
f 51/86/3 54/89/3 55/49/3
f 55/49/3 56/50/3 51/86/3
f 26/49/1 48/48/1 45/47/1
f 45/47/1 25/50/1 26/49/1
f 47/53/7 19/45/7 20/46/7
f 20/46/7 34/54/7 47/53/7
f 52/81/8 31/53/8 32/54/8
f 32/54/8 54/63/8 52/81/8
f 18/44/7 53/72/7 49/71/7
f 49/71/7 17/43/7 18/44/7
f 24/62/5 25/59/5 45/73/5
f 45/73/5 46/74/5 24/62/5
f 29/46/10 44/43/10 48/48/10
f 48/48/10 26/49/10 29/46/10
f 52/91/2 53/90/2 18/56/2
f 18/56/2 31/57/2 52/91/2
f 51/92/5 56/41/5 28/60/5
f 28/60/5 21/61/5 51/92/5
f 54/63/10 32/54/10 27/51/10
f 27/51/10 55/64/10 54/63/10
f 55/64/1 27/51/1 28/52/1
f 28/52/1 56/76/1 55/64/1
f 34/54/9 20/46/9 23/49/9
f 23/49/9 33/51/9 34/54/9
f 33/51/6 23/49/6 24/50/6
f 24/50/6 46/52/6 33/51/6
f 17/43/9 49/71/9 50/82/9
f 50/82/9 22/48/9 17/43/9
f 30/45/8 43/44/8 44/43/8
f 44/43/8 29/46/8 30/45/8
f 30/58/2 19/55/2 47/78/2
f 47/78/2 43/79/2 30/58/2
f 22/48/6 50/82/6 51/83/6
f 51/83/6 21/47/6 22/48/6
f 51/86/3 50/85/3 49/84/3
f 49/84/3 53/88/3 52/87/3
f 51/86/3 49/84/3 52/87/3
f 51/86/3 52/87/3 54/89/3
f 51/86/3 54/89/3 55/49/3
f 55/49/3 56/50/3 51/86/3
f 26/49/1 48/48/1 45/47/1
f 45/47/1 25/50/1 26/49/1
f 47/53/7 19/45/7 20/46/7
f 20/46/7 34/54/7 47/53/7
f 52/81/8 31/53/8 32/54/8
f 32/54/8 54/63/8 52/81/8
f 18/44/7 53/72/7 49/71/7
f 49/71/7 17/43/7 18/44/7
f 24/62/5 25/59/5 45/73/5
f 45/73/5 46/74/5 24/62/5
f 29/46/10 44/43/10 48/48/10
f 48/48/10 26/49/10 29/46/10
f 52/91/2 53/90/2 18/56/2
f 18/56/2 31/57/2 52/91/2
f 51/92/5 56/41/5 28/60/5
f 28/60/5 21/61/5 51/92/5
f 54/63/10 32/54/10 27/51/10
f 27/51/10 55/64/10 54/63/10
f 55/64/1 27/51/1 28/52/1
f 28/52/1 56/76/1 55/64/1
f 34/54/9 20/46/9 23/49/9
f 23/49/9 33/51/9 34/54/9
f 33/51/6 23/49/6 24/50/6
f 24/50/6 46/52/6 33/51/6
f 17/43/9 49/71/9 50/82/9
f 50/82/9 22/48/9 17/43/9
f 30/45/8 43/44/8 44/43/8
f 44/43/8 29/46/8 30/45/8
f 30/58/2 19/55/2 47/78/2
f 47/78/2 43/79/2 30/58/2
f 22/48/6 50/82/6 51/83/6
f 51/83/6 21/47/6 22/48/6

g barrierWall

v -0.25 0.2738 0.101475
v -0.25 0.3312 0.09308028
v 0 0.3312 0.09308028
v 0 0.2738 0.101475
v -0.25 0.2 0.123
v -0.25 0.2246 0.123
v 0 0.2246 0.123
v 0 0.2 0.123
v 0 0.2 0
v 0 0.2246 0
v -0.25 0.2246 0
v -0.25 0.2 0
v 0 0.2738 0.02152503
v 0 0.3312 0.02991974
v -0.25 0.3312 0.02991974
v -0.25 0.2738 0.02152503
v 0.25 0.2246 0.123
v 0.25 0.2738 0.101475
v 0.5 0.2738 0.101475
v 0.5 0.2246 0.123
v 0.5 0.2 0.123
v 0.5 0.3312 0.09308028
v 0.5 0.3312 0.02991974
v 0.5 0.2738 0.02152503
v 0.5 0.2 0
v 0.5 0.2246 0
v 0.25 0.3312 0.02991974
v 0.25 0.2738 0.02152503
v 0.25 0.2 0
v 0.25 0.2 0.123
v 0.25 0.3312 0.09308028
v 0.25 0.2246 0
v -0.5 0.2738 0.101475
v -0.5 0.2246 0.123
v -0.5 0.2 0.123
v -0.5 0.3312 0.02991974
v -0.5 0.3312 0.09308028
v -0.5 0.2738 0.02152503
v -0.5 0.2246 0
v -0.5 0.2 0


vt -0.25 0.2738
vt -0.25 0.3312
vt 0 0.3312
vt 0 0.2738
vt -0.25 0.2
vt -0.25 0.2246
vt 0 0.2246
vt 0 0.2
vt 0.25 0.2246
vt 0.25 0.2
vt 0.25 0.3312
vt 0.25 0.2738
vt 0.5 0.2738
vt 0.5 0.2246
vt -0.123 0.2
vt -0.123 0.2246
vt -0.101475 0.2738
vt -0.09308028 0.3312
vt -0.02991974 0.3312
vt -0.02152503 0.2738
vt -0.5 0.2738
vt -0.5 0.3312
vt 0.5 0.2
vt 0.5 0.3312
vt -0.5 0.2246
vt -0.5 0.2
vt 0.101475 0.2738
vt 0.123 0.2246
vt 0.123 0.2
vt 0.02991974 0.3312
vt 0.09308028 0.3312
vt 0.02152503 0.2738

usemtl grey(Clone)

f 59/95/7 58/94/7 57/93/7
f 57/93/7 60/96/7 59/95/7
f 63/99/6 62/98/6 61/97/6
f 61/97/6 64/100/6 63/99/6
f 67/101/1 66/99/1 65/100/1
f 65/100/1 68/102/1 67/101/1
f 71/103/8 70/95/8 69/96/8
f 69/96/8 72/104/8 71/103/8
f 60/96/9 57/93/9 62/98/9
f 62/98/9 63/99/9 60/96/9
f 71/57/2 58/56/2 59/55/2
f 59/55/2 70/58/2 71/57/2
f 72/104/10 69/96/10 66/99/10
f 66/99/10 67/101/10 72/104/10
f 61/61/5 68/60/5 65/59/5
f 65/59/5 64/62/5 61/61/5
f 75/105/9 74/104/9 73/101/9
f 73/101/9 76/106/9 75/105/9
f 75/109/4 76/108/4 77/107/4
f 79/111/4 78/110/4 75/109/4
f 79/111/4 75/109/4 77/107/4
f 80/112/4 79/111/4 77/107/4
f 80/112/4 77/107/4 81/100/4
f 81/100/4 82/99/4 80/112/4
f 83/94/8 79/114/8 80/113/8
f 80/113/8 84/93/8 83/94/8
f 86/74/5 85/73/5 81/28/5
f 81/28/5 77/75/5 86/74/5
f 76/106/6 73/101/6 86/102/6
f 86/102/6 77/115/6 76/106/6
f 83/79/2 87/78/2 78/77/2
f 78/77/2 79/80/2 83/79/2
f 78/116/7 87/103/7 74/104/7
f 74/104/7 75/105/7 78/116/7
f 84/93/10 80/113/10 82/117/10
f 82/117/10 88/98/10 84/93/10
f 88/98/1 82/117/1 81/118/1
f 81/118/1 85/97/1 88/98/1
f 59/95/7 58/94/7 57/93/7
f 57/93/7 60/96/7 59/95/7
f 63/99/6 62/98/6 61/97/6
f 61/97/6 64/100/6 63/99/6
f 67/101/1 66/99/1 65/100/1
f 65/100/1 68/102/1 67/101/1
f 71/103/8 70/95/8 69/96/8
f 69/96/8 72/104/8 71/103/8
f 60/96/9 57/93/9 62/98/9
f 62/98/9 63/99/9 60/96/9
f 71/57/2 58/56/2 59/55/2
f 59/55/2 70/58/2 71/57/2
f 72/104/10 69/96/10 66/99/10
f 66/99/10 67/101/10 72/104/10
f 61/61/5 68/60/5 65/59/5
f 65/59/5 64/62/5 61/61/5
f 75/105/9 74/104/9 73/101/9
f 73/101/9 76/106/9 75/105/9
f 75/109/4 76/108/4 77/107/4
f 79/111/4 78/110/4 75/109/4
f 79/111/4 75/109/4 77/107/4
f 80/112/4 79/111/4 77/107/4
f 80/112/4 77/107/4 81/100/4
f 81/100/4 82/99/4 80/112/4
f 83/94/8 79/114/8 80/113/8
f 80/113/8 84/93/8 83/94/8
f 86/74/5 85/73/5 81/28/5
f 81/28/5 77/75/5 86/74/5
f 76/106/6 73/101/6 86/102/6
f 86/102/6 77/115/6 76/106/6
f 83/79/2 87/78/2 78/77/2
f 78/77/2 79/80/2 83/79/2
f 78/116/7 87/103/7 74/104/7
f 74/104/7 75/105/7 78/116/7
f 84/93/10 80/113/10 82/117/10
f 82/117/10 88/98/10 84/93/10
f 88/98/1 82/117/1 81/118/1
f 81/118/1 85/97/1 88/98/1

usemtl red(Clone)

f 91/121/3 90/120/3 89/119/3
f 89/119/3 93/123/3 92/122/3
f 91/121/3 89/119/3 92/122/3
f 91/121/3 92/122/3 94/124/3
f 91/121/3 94/124/3 95/99/3
f 95/99/3 96/100/3 91/121/3
f 66/99/1 88/98/1 85/97/1
f 85/97/1 65/100/1 66/99/1
f 87/103/7 59/95/7 60/96/7
f 60/96/7 74/104/7 87/103/7
f 92/116/8 71/103/8 72/104/8
f 72/104/8 94/105/8 92/116/8
f 58/94/7 93/114/7 89/113/7
f 89/113/7 57/93/7 58/94/7
f 64/62/5 65/59/5 85/73/5
f 85/73/5 86/74/5 64/62/5
f 69/96/10 84/93/10 88/98/10
f 88/98/10 66/99/10 69/96/10
f 92/91/2 93/90/2 58/56/2
f 58/56/2 71/57/2 92/91/2
f 91/92/5 96/41/5 68/60/5
f 68/60/5 61/61/5 91/92/5
f 94/105/10 72/104/10 67/101/10
f 67/101/10 95/106/10 94/105/10
f 95/106/1 67/101/1 68/102/1
f 68/102/1 96/115/1 95/106/1
f 74/104/9 60/96/9 63/99/9
f 63/99/9 73/101/9 74/104/9
f 73/101/6 63/99/6 64/100/6
f 64/100/6 86/102/6 73/101/6
f 57/93/9 89/113/9 90/117/9
f 90/117/9 62/98/9 57/93/9
f 70/95/8 83/94/8 84/93/8
f 84/93/8 69/96/8 70/95/8
f 70/58/2 59/55/2 87/78/2
f 87/78/2 83/79/2 70/58/2
f 62/98/6 90/117/6 91/118/6
f 91/118/6 61/97/6 62/98/6
f 91/121/3 90/120/3 89/119/3
f 89/119/3 93/123/3 92/122/3
f 91/121/3 89/119/3 92/122/3
f 91/121/3 92/122/3 94/124/3
f 91/121/3 94/124/3 95/99/3
f 95/99/3 96/100/3 91/121/3
f 66/99/1 88/98/1 85/97/1
f 85/97/1 65/100/1 66/99/1
f 87/103/7 59/95/7 60/96/7
f 60/96/7 74/104/7 87/103/7
f 92/116/8 71/103/8 72/104/8
f 72/104/8 94/105/8 92/116/8
f 58/94/7 93/114/7 89/113/7
f 89/113/7 57/93/7 58/94/7
f 64/62/5 65/59/5 85/73/5
f 85/73/5 86/74/5 64/62/5
f 69/96/10 84/93/10 88/98/10
f 88/98/10 66/99/10 69/96/10
f 92/91/2 93/90/2 58/56/2
f 58/56/2 71/57/2 92/91/2
f 91/92/5 96/41/5 68/60/5
f 68/60/5 61/61/5 91/92/5
f 94/105/10 72/104/10 67/101/10
f 67/101/10 95/106/10 94/105/10
f 95/106/1 67/101/1 68/102/1
f 68/102/1 96/115/1 95/106/1
f 74/104/9 60/96/9 63/99/9
f 63/99/9 73/101/9 74/104/9
f 73/101/6 63/99/6 64/100/6
f 64/100/6 86/102/6 73/101/6
f 57/93/9 89/113/9 90/117/9
f 90/117/9 62/98/9 57/93/9
f 70/95/8 83/94/8 84/93/8
f 84/93/8 69/96/8 70/95/8
f 70/58/2 59/55/2 87/78/2
f 87/78/2 83/79/2 70/58/2
f 62/98/6 90/117/6 91/118/6
f 91/118/6 61/97/6 62/98/6

g wallWoodSide

v 0.575 1 -0.06
v 0.525 1 -0.06
v 0.575 4.511946E-15 -0.06
v 0.525 4.511946E-15 -0.06
v 0.525 1 0.09999999
v 0.575 1 0.09999999
v 0.525 0 0.09999999
v 0.575 0 0.09999999
v 0.5 0 0.09999999
v 0.5 0 0.2
v 0.6 0 0.09999999
v 0.6 0 0.2
v 0.5 1 0.2
v 0.6 1 0.2
v 0.5 1 0.09999999
v 0.6 1 0.09999999


vt -0.575 1
vt -0.525 1
vt -0.575 4.511946E-15
vt -0.525 4.511946E-15
vt -0.525 0.09999999
vt -0.525 -0.06
vt -0.575 0.09999999
vt -0.575 -0.06
vt -0.525 0.06
vt -0.525 -0.09999999
vt -0.575 0.06
vt -0.575 -0.09999999
vt -0.5 -0.09999999
vt -0.5 -0.2
vt -0.6 -0.09999999
vt -0.6 -0.2
vt -0.525 0
vt -0.5 0.09999999
vt -0.5 0.2
vt -0.6 0.2
vt -0.6 0.09999999
vt -0.575 0

usemtl wood(Clone)

f 99/127/1 98/126/1 97/125/1
f 98/126/1 99/127/1 100/128/1
f 102/131/2 98/130/2 101/129/2
f 98/130/2 102/131/2 97/132/2
f 98/11/3 103/10/3 101/9/3
f 103/10/3 98/11/3 100/12/3
f 99/15/4 102/14/4 104/13/4
f 102/14/4 99/15/4 97/16/4
f 99/135/5 103/134/5 100/133/5
f 103/134/5 99/135/5 104/136/5

usemtl wood(Clone)

f 103/134/5 106/138/5 105/137/5
f 104/136/5 106/138/5 103/134/5
f 107/139/5 106/138/5 104/136/5
f 106/138/5 107/139/5 108/140/5
f 106/41/6 110/31/6 109/40/6
f 110/31/6 106/41/6 108/33/6
f 111/9/3 106/30/3 109/29/3
f 106/30/3 111/9/3 105/10/3
f 103/141/1 111/26/1 101/126/1
f 111/26/1 103/141/1 105/28/1
f 107/13/4 110/35/4 108/34/4
f 110/35/4 107/13/4 112/14/4
f 109/143/2 101/129/2 111/142/2
f 109/143/2 102/131/2 101/129/2
f 110/144/2 102/131/2 109/143/2
f 102/131/2 110/144/2 112/145/2
f 107/27/1 102/125/1 112/25/1
f 102/125/1 107/27/1 104/146/1

g steam_engine_front

v -0.2828427 -5.137891E-17 -0.2
v -0.3656854 0.2 -0.2
v -0.2287231 -5.137891E-17 -0.1
v -0.4 0.2828427 -0.2
v -0.3458804 0.2828427 -0.1
v -0.2828427 -5.137891E-17 -0.6
v -0.4 0.2828427 -0.6
v -0.2828427 -5.137891E-17 -0.5
v -0.3656854 0.2 -0.5
v -0.2828427 0.5656855 -0.6
v -0.2828427 0.5656855 -0.2
v 1.183935E-13 0.6828427 -0.2
v 0 0.6828427 -0.6
v 1.62791E-13 0.1328427 -0.05
v -0.106066 0.1767767 -0.05
v 0.106066 0.1767767 -0.05
v 0.15 0.2828427 -0.05
v -0.15 0.2828427 -0.05
v -0.106066 0.3889087 -0.05
v 0.106066 0.3889087 -0.05
v 1.62791E-13 0.4328427 -0.05
v -0.1414214 0.1414214 -0.1
v -0.2 0.2828427 -0.1
v 0.1414214 0.1414214 -0.1
v 1.476309E-13 0.08284272 -0.1
v 0.2828427 3.886001E-17 -0.6
v 0.3656854 0.2 -0.5
v 0.4 0.2828427 -0.6
v 0.4 0.2828427 -0.2
v 0.3656854 0.2 -0.2
v 0.2828427 5.802935E-16 -0.5
v 0.2828427 0.5656855 -0.6
v 0.2828427 0.5656855 -0.2
v -0.1414214 0.4242641 -0.1
v -0.2445744 0.5274171 -0.1
v 0.2828427 3.886001E-17 -0.2
v 0.2287231 -5.137891E-17 -0.1
v 0.1414214 0.4242641 -0.1
v 1.476309E-13 0.4828427 -0.1
v 0.2 0.2828427 -0.1
v 0.3458804 0.2828427 -0.1
v 1.476309E-13 0.6287231 -0.1
v 0.2445744 0.5274171 -0.1
v 0.5 -5.137891E-17 -0.2
v 0.5 -5.137891E-17 -0.5
v 0.4 0.2 -0.2
v 0.4 0.2 -0.5
v -0.5 -5.137891E-17 -0.5
v -0.4 0.2 -0.5
v -0.4 0.2 -0.2
v -0.5 -5.137891E-17 -0.2

vn -0.8263429 -0.3422824 0.4472136
vn -0.8794653 0 0.4759632
vn -0.9238795 -0.3826834 0
vn -0.9238795 0.3826834 0
vn -0.3826834 0.9238795 0
vn -0.5 -0.5 0.7071068
vn -0.7071068 0 0.7071068
vn 0.5 -0.5 0.7071068
vn 0 -0.7071068 0.7071068
vn 0.9238795 -0.3826834 0
vn 0.9238795 0.3826834 0
vn -0.5 0.5 0.7071068
vn -0.6218758 0.6218758 0.4759631
vn 0.5 0.5 0.7071068
vn 0 0.7071068 0.7071068
vn 0.7071068 0 0.7071068
vn 0.8263429 -0.3422824 0.4472136
vn 0.8794653 0 0.4759632
vn 0.3826834 0.9238795 0
vn 0 0.8794653 0.4759632
vn 0.6218758 0.6218758 0.4759631
vn 0.8944272 0.4472136 0
vn -0.8944272 0.4472136 0

vt -0.2 -5.137891E-17
vt -0.2 0.2
vt -0.1 -5.137891E-17
vt -0.2 0.2828427
vt -0.1 0.2828427
vt -0.6 -5.137891E-17
vt -0.6 0.2828427
vt -0.5 -5.137891E-17
vt -0.6 0.5656855
vt -0.2 0.5656855
vt -1.183935E-13 -0.2
vt 0.2828427 -0.2
vt 0 -0.6
vt 0.2828427 -0.6
vt 1.62791E-13 0.1328427
vt -0.106066 0.1767767
vt 0.106066 0.1767767
vt 0.15 0.2828427
vt -0.15 0.2828427
vt -0.106066 0.3889087
vt 0.106066 0.3889087
vt 1.62791E-13 0.4328427
vt -0.1414214 0.1414214
vt -0.05 0.2828427
vt -0.05 0.1767767
vt -0.1414214 0.1
vt -1.476309E-13 0.1
vt -0.106066 0.05
vt 1.476309E-13 0.08284272
vt 0.6 3.886001E-17
vt 0.6 0.2828427
vt 0.2 0.2828427
vt 0.2 0.2
vt 0.5 5.802935E-16
vt 0.6 0.5656855
vt 0.2 0.5656855
vt -0.1 0.4242641
vt -0.1414214 0.4242641
vt 0.2828427 -5.137891E-17
vt -0.2828427 3.886001E-17
vt 0.4 0.2828427
vt -0.4 0.2828427
vt 0.2828427 0.5656855
vt -0.2828427 0.5656855
vt 0 0.6828427
vt -0.1 0.5274171
vt -0.2828427 0.2
vt -0.2828427 0.5
vt -0.2287231 0.1
vt -0.2828427 0.6
vt 0.2828427 0.6
vt 0.2287231 0.1
vt 0.2828427 0.2
vt -0.2828427 -5.137891E-17
vt 0.1414214 0.4242641
vt 1.476309E-13 0.4828427
vt 0.1 0.2828427
vt 0.05 0.2828427
vt 0.1 0.4242641
vt 0.1 0.1414214
vt 0.1414214 0.1414214
vt 0.3656854 0.2
vt 0.2828427 3.886001E-17
vt 0.1 -5.137891E-17
vt 0.2 3.886001E-17
vt -0.2828427 -0.2
vt -0.2828427 -0.6
vt -1.476309E-13 -0.1
vt 0.2445744 -0.1
vt -0.2445744 -0.1
vt -0.2287231 -5.137891E-17
vt 0.2287231 -5.137891E-17
vt 0.3458804 0.2828427
vt 0.2445744 0.5274171
vt -0.3458804 0.2828427
vt -0.2445744 0.5274171
vt 1.476309E-13 0.6287231
vt 0.106066 0.05
vt -1.62791E-13 0.05
vt 0.1414214 0.1
vt 0.1 0.5274171
vt -0.5 0.5
vt 0.5 -5.137891E-17
vt 0.4 0.2
vt -0.4 0.2
vt -0.2828427 5.802935E-16
vt -0.3656854 0.2
vt 0.2 -5.137891E-17
vt 0.3656854 -0.2
vt 0.4 -0.2
vt 0.3656854 -0.5
vt 0.4 -0.5
vt 0.2828427 0.5
vt 0.5 0.5
vt -0.4 -0.2
vt -0.3656854 -0.2
vt -0.4 -0.5
vt -0.3656854 -0.5

usemtl steel(Clone)

f 115/149/11 114/148/11 113/147/11
f 114/148/11 115/149/11 116/150/12
f 116/150/12 115/149/11 117/151/12
f 120/154/13 119/153/13 118/152/13
f 119/153/13 120/154/13 121/118/13
f 119/153/13 121/118/13 116/150/13
f 116/150/13 121/118/13 114/148/13
f 119/153/14 123/156/14 122/155/14
f 123/156/14 119/153/14 116/150/14
f 125/159/15 123/158/15 124/157/15
f 123/158/15 125/159/15 122/160/15
f 128/163/6 127/162/6 126/161/6
f 127/162/6 128/163/6 129/164/6
f 127/162/6 129/164/6 130/165/6
f 130/165/6 129/164/6 131/166/6
f 131/166/6 129/164/6 132/167/6
f 131/166/6 132/167/6 133/168/6
f 127/162/16 135/150/17 134/169/16
f 135/151/17 127/171/16 130/170/17
f 128/174/18 137/173/19 136/172/18
f 137/175/19 128/163/18 126/161/19
f 140/177/20 139/115/20 138/176/20
f 139/115/20 140/177/20 141/178/20
f 139/115/20 141/178/20 142/179/20
f 143/180/20 138/176/20 139/115/20
f 144/181/21 141/178/21 140/177/21
f 141/178/21 144/181/21 145/182/21
f 130/170/17 146/183/22 135/151/17
f 146/184/22 130/165/17 131/166/22
f 119/187/1 138/186/1 118/185/1
f 138/186/1 119/187/1 140/188/1
f 140/188/1 119/187/1 122/189/1
f 140/188/1 122/189/1 144/190/1
f 144/190/1 122/189/1 125/191/1
f 116/150/12 147/192/23 123/156/23
f 147/192/23 116/150/12 117/151/12
f 149/195/5 143/194/5 148/193/5
f 143/194/5 149/195/5 138/196/5
f 138/196/5 149/195/5 118/197/5
f 118/197/5 149/195/5 115/198/5
f 118/197/5 115/198/5 113/199/5
f 118/200/5 113/200/5 120/200/5
f 151/202/25 132/167/24 150/201/24
f 132/167/24 151/202/25 133/168/25
f 150/205/24 129/204/26 152/203/26
f 129/164/26 150/201/24 132/167/24
f 129/204/26 136/206/18 152/203/26
f 136/207/18 129/164/26 128/163/18
f 141/187/28 148/209/27 142/208/27
f 148/211/27 141/178/28 149/210/27
f 149/210/27 141/178/28 153/203/28
f 144/213/29 124/157/29 145/212/29
f 124/157/29 144/213/29 125/159/29
f 124/157/30 147/215/23 154/214/30
f 147/215/23 124/157/30 123/158/23
f 124/157/30 155/216/31 145/212/31
f 155/216/31 124/157/30 154/214/30
f 149/218/6 137/175/6 115/217/6
f 137/175/6 149/218/6 136/207/6
f 136/207/6 149/218/6 153/219/6
f 136/207/6 153/219/6 152/178/6
f 152/178/6 153/219/6 155/220/6
f 152/178/6 155/220/6 150/201/6
f 150/201/6 155/220/6 151/202/6
f 134/169/6 115/217/6 137/175/6
f 115/217/6 134/169/6 117/221/6
f 117/221/6 134/169/6 135/150/6
f 117/221/6 135/150/6 146/184/6
f 117/221/6 146/184/6 147/222/6
f 147/222/6 146/184/6 151/202/6
f 147/222/6 151/202/6 155/220/6
f 147/222/6 155/220/6 154/223/6
f 133/168/25 146/184/22 131/166/22
f 146/184/22 133/168/25 151/202/25
f 126/161/19 134/169/16 137/175/19
f 134/226/16 126/225/19 127/224/16
f 145/182/31 153/203/28 141/178/28
f 153/203/28 145/182/31 155/227/31

usemtl steel(Clone)

f 148/193/5 157/228/5 156/118/5
f 157/228/5 148/193/5 143/194/5
f 158/230/6 148/209/6 156/229/6
f 148/209/6 158/230/6 142/208/6
f 143/232/1 159/231/1 157/154/1
f 159/231/1 143/232/1 139/233/1
f 161/230/1 120/185/1 160/229/1
f 120/185/1 161/230/1 121/208/1
f 159/115/32 156/234/32 157/229/32
f 156/234/32 159/115/32 158/179/32
f 121/237/2 162/236/2 114/235/2
f 162/236/2 121/237/2 161/238/2
f 163/115/5 120/239/5 113/199/5
f 120/239/5 163/115/5 160/240/5
f 160/154/33 162/148/33 161/118/33
f 162/148/33 160/154/33 163/147/33
f 159/243/2 142/242/2 158/241/2
f 142/242/2 159/243/2 139/244/2
f 114/233/6 163/154/6 113/200/6
f 163/154/6 114/233/6 162/231/6

