# Created by Kenney (www.kenney.nl)

mtllib SpeedDown.mtl

g mergedBlocks

v 0.5000097 3.299566 1.033724E-07
v 0.4000077 3.299566 9.462995E-08
v 0.5000097 3.299566 -0.2000018
v 0.4000078 3.299566 -0.2000019
v -0.4000077 3.299566 2.469039E-08
v -0.5000097 3.299566 1.594794E-08
v -0.4000077 3.299566 -0.2000019
v -0.5000097 3.299566 -0.2000019
v -1.443851E-15 2.299556 -5.955024E-08
v 1.748472E-08 2.299556 -0.200002
v 1.748472E-08 2.523165 -0.200002
v -0.3484865 3.199565 -0.100001
v 8.742361E-09 2.523165 -0.100001
v 0.3484865 3.199565 -0.1000009
v 0.5000097 2.299566 1.033724E-07
v 0.4000077 2.299566 9.462995E-08
v 0.5000097 2.299566 -0.2000018
v 0.4000078 2.299566 -0.2000019
v -0.4000077 2.299566 2.469039E-08
v -0.5000097 2.299566 1.594794E-08
v -0.4000077 2.299566 -0.2000019
v -0.5000097 2.299566 -0.2000019
v -1.443851E-15 1.299556 -5.955024E-08
v 1.748472E-08 1.299556 -0.200002
v 1.748472E-08 1.523165 -0.200002
v -0.3484865 2.199565 -0.100001
v 8.742361E-09 1.523165 -0.100001
v 0.3484865 2.199565 -0.1000009
v -0.5 2.299565 -0.1999999
v -0.4 2.299565 -0.1999999
v -0.5 2.299565 1.609325E-06
v -0.4 2.299565 1.609325E-06
v 0.4 2.299565 -0.1999999
v 0.5 2.299565 -0.1999999
v 0.4 2.299565 1.609325E-06
v 0.5 2.299565 1.609325E-06
v 1.443823E-15 1.299557 -0.2000001
v 1.443823E-15 1.299557 1.490116E-06
v 1.443823E-15 1.523166 1.519918E-06
v 0.3484797 2.199564 -0.09999918
v 1.443823E-15 1.523166 -0.09999926
v -0.3484797 2.199564 -0.09999918
v -0.5 3.299564 -0.1999999
v -0.4 3.299564 -0.1999999
v -0.5 3.299564 1.221895E-06
v -0.4 3.299564 1.221895E-06
v 0.4 3.299564 -0.1999999
v 0.5 3.299564 -0.1999999
v 0.4 3.299564 1.221895E-06
v 0.5 3.299564 1.221895E-06
v 1.443823E-15 2.299558 -0.2000001
v 1.443823E-15 2.299558 1.102686E-06
v 1.443823E-15 2.523166 1.132488E-06
v 0.3484797 3.199563 -0.09999938
v 1.443823E-15 2.523166 -0.09999945
v -0.3484797 3.199563 -0.09999938

vn 0 0.9999903 1.192081E-07
vn -8.742193E-08 1.192081E-07 0.9999903
vn -0.8944272 -0.4472093 -1.315048E-07
vn 0.8944272 -0.4472093 2.488181E-08
vn 8.742193E-08 -1.192081E-07 -0.9999903
vn 0.888956 0.4579883 1.323114E-07
vn -0.888956 0.4579883 -2.311855E-08
vn 6.181664E-08 0.7070999 -0.7070999
vn 0 1.000008 1.192102E-07
vn 0 1.192102E-07 -1.000008
vn 0.8944272 -0.447217 -5.331242E-08
vn -0.8944272 -0.447217 -5.331242E-08
vn 0 -1.192102E-07 1.000008
vn -0.888956 0.4579962 5.45974E-08
vn 0.888956 0.4579962 5.45974E-08
vn 0 0.7071122 0.7071123
vn 0 1.000006 1.1921E-07
vn 0 1.1921E-07 -1.000006
vn 0.8944272 -0.4472162 -5.331232E-08
vn -0.8944272 -0.4472162 -5.331232E-08
vn 0 -1.1921E-07 1.000006
vn -0.888956 0.4579954 5.459729E-08
vn 0.888956 0.4579954 5.459729E-08
vn 0 0.7071108 0.7071109

vt -0.5000097 1.033724E-07
vt -0.4000077 9.462996E-08
vt -0.5000097 -0.2000018
vt -0.4000078 -0.2000018
vt 0.4000077 2.469039E-08
vt 0.5000097 1.594794E-08
vt 0.4000077 -0.2000019
vt 0.5000097 -0.2000019
vt -0.5000097 3.299566
vt -0.4000077 3.299566
vt -1.443851E-15 2.299556
vt 0.4000077 3.299566
vt 0.5000097 3.299566
vt -0.2000019 3.299566
vt 1.594794E-08 3.299566
vt -0.200002 2.299556
vt -5.955024E-08 2.299556
vt -1.033724E-07 3.299566
vt 0.2000018 3.299566
vt 5.955024E-08 2.299556
vt 0.200002 2.299556
vt -1.748472E-08 2.299556
vt -1.748472E-08 2.523165
vt -0.4000078 3.299566
vt -2.469039E-08 3.299566
vt 0.2000019 3.299566
vt 0.1000009 3.199565
vt 0.200002 2.523165
vt 0.100001 2.523165
vt 9.462996E-08 3.299566
vt -0.1000009 3.199565
vt -0.2000018 3.299566
vt -0.200002 2.523165
vt -0.100001 2.523165
vt 0.3484865 3.199565
vt -8.742361E-09 2.523165
vt -0.3484865 3.199565
vt -0.3484865 -0.1000009
vt 0.3484865 -0.1000009
vt -0.5000097 2.299566
vt -0.4000077 2.299566
vt -1.443851E-15 1.299556
vt 0.4000077 2.299566
vt 0.5000097 2.299566
vt -0.2000019 2.299566
vt 1.594794E-08 2.299566
vt -0.200002 1.299556
vt -5.955024E-08 1.299556
vt -1.033724E-07 2.299566
vt 0.2000018 2.299566
vt 5.955024E-08 1.299556
vt 0.200002 1.299556
vt -1.748472E-08 1.299556
vt -1.748472E-08 1.523165
vt -0.4000078 2.299566
vt -2.469039E-08 2.299566
vt 0.2000019 2.299566
vt 0.1000009 2.199565
vt 0.200002 1.523165
vt 0.100001 1.523165
vt 9.462996E-08 2.299566
vt -0.1000009 2.199565
vt -0.2000018 2.299566
vt -0.200002 1.523165
vt -0.100001 1.523165
vt 0.3484865 2.199565
vt -8.742361E-09 1.523165
vt -0.3484865 2.199565
vt 0.5 -0.1999999
vt 0.4 -0.1999999
vt 0.5 1.609381E-06
vt 0.4 1.609381E-06
vt -0.4 -0.1999999
vt -0.5 -0.1999999
vt -0.4 1.609381E-06
vt -0.5 1.609381E-06
vt -0.5 2.299565
vt -0.4 2.299565
vt -1.443823E-15 1.299557
vt 0.4 2.299565
vt 0.5 2.299565
vt -1.609381E-06 2.299565
vt 0.1999999 2.299565
vt -1.490171E-06 1.299557
vt 0.2000001 1.299557
vt -0.1999999 2.299565
vt 1.609381E-06 2.299565
vt -0.2000001 1.299557
vt 1.490171E-06 1.299557
vt 1.443823E-15 1.299557
vt 1.443823E-15 1.523166
vt -0.09999918 2.199564
vt 1.516827E-06 1.523166
vt -0.09999926 1.523166
vt 0.09999918 2.199564
vt -1.516827E-06 1.523166
vt 0.09999926 1.523166
vt 0.3484797 2.199564
vt -0.3484797 2.199564
vt 0.5 1.227911E-06
vt 0.4 1.227911E-06
vt -0.4 1.227911E-06
vt -0.5 1.227911E-06
vt -0.5 3.299564
vt -0.4 3.299564
vt -1.443823E-15 2.299558
vt 0.4 3.299564
vt 0.5 3.299564
vt -1.227911E-06 3.299564
vt 0.1999999 3.299564
vt -1.108701E-06 2.299558
vt 0.2000001 2.299558
vt -0.1999999 3.299564
vt 1.227911E-06 3.299564
vt -0.2000001 2.299558
vt 1.108701E-06 2.299558
vt 1.443823E-15 2.299558
vt 1.443823E-15 2.523166
vt -0.09999937 3.199563
vt 1.135357E-06 2.523166
vt -0.09999945 2.523166
vt 0.09999937 3.199563
vt -1.135357E-06 2.523166
vt 0.09999945 2.523166
vt 0.3484797 3.199563
vt -0.3484797 3.199563

usemtl metalGreen(Clone)

f 3/3/1 2/2/1 1/1/1
f 2/2/1 3/3/1 4/4/1
f 7/7/1 6/6/1 5/5/1
f 6/6/1 7/7/1 8/8/1
f 9/11/2 5/10/2 6/9/2
f 5/10/2 9/11/2 2/12/2
f 2/12/2 9/11/2 1/13/2
f 10/16/3 6/15/3 8/14/3
f 6/15/3 10/16/3 9/17/3
f 9/20/4 3/19/4 1/18/4
f 3/19/4 9/20/4 10/21/4
f 7/12/5 10/22/5 8/13/5
f 10/22/5 7/12/5 11/23/5
f 10/22/5 11/23/5 4/24/5
f 10/22/5 4/24/5 3/9/5
f 12/27/6 7/26/6 5/25/6
f 7/26/6 12/27/6 11/28/6
f 11/28/6 12/27/6 13/29/6
f 4/32/7 14/31/7 2/30/7
f 14/31/7 4/32/7 11/33/7
f 14/31/7 11/33/7 13/34/7
f 14/37/5 13/36/5 12/35/5
f 14/38/8 5/5/8 2/2/8
f 5/5/8 14/38/8 12/39/8
f 17/3/1 16/2/1 15/1/1
f 16/2/1 17/3/1 18/4/1
f 21/7/1 20/6/1 19/5/1
f 20/6/1 21/7/1 22/8/1
f 23/42/2 19/41/2 20/40/2
f 19/41/2 23/42/2 16/43/2
f 16/43/2 23/42/2 15/44/2
f 24/47/3 20/46/3 22/45/3
f 20/46/3 24/47/3 23/48/3
f 23/51/4 17/50/4 15/49/4
f 17/50/4 23/51/4 24/52/4
f 21/43/5 24/53/5 22/44/5
f 24/53/5 21/43/5 25/54/5
f 24/53/5 25/54/5 18/55/5
f 24/53/5 18/55/5 17/40/5
f 26/58/6 21/57/6 19/56/6
f 21/57/6 26/58/6 25/59/6
f 25/59/6 26/58/6 27/60/6
f 18/63/7 28/62/7 16/61/7
f 28/62/7 18/63/7 25/64/7
f 28/62/7 25/64/7 27/65/7
f 28/68/5 27/67/5 26/66/5
f 28/38/8 19/5/8 16/2/8
f 19/5/8 28/38/8 26/39/8
f 31/71/9 30/70/9 29/69/9
f 30/70/9 31/71/9 32/72/9
f 35/75/9 34/74/9 33/73/9
f 34/74/9 35/75/9 36/76/9
f 37/79/10 33/78/10 34/77/10
f 33/78/10 37/79/10 30/80/10
f 30/80/10 37/79/10 29/81/10
f 38/84/11 34/83/11 36/82/11
f 34/83/11 38/84/11 37/85/11
f 37/88/12 31/87/12 29/86/12
f 31/87/12 37/88/12 38/89/12
f 35/80/13 38/90/13 36/81/13
f 38/90/13 35/80/13 39/91/13
f 38/90/13 39/91/13 32/78/13
f 38/90/13 32/78/13 31/77/13
f 40/92/14 35/87/14 33/86/14
f 35/87/14 40/92/14 39/93/14
f 39/93/14 40/92/14 41/94/14
f 32/82/15 42/95/15 30/83/15
f 42/95/15 32/82/15 39/96/15
f 42/95/15 39/96/15 41/97/15
f 42/99/13 41/91/13 40/98/13
f 42/99/16 33/80/16 30/78/16
f 33/80/16 42/99/16 40/98/16
f 45/100/17 44/70/17 43/69/17
f 44/70/17 45/100/17 46/101/17
f 49/102/17 48/74/17 47/73/17
f 48/74/17 49/102/17 50/103/17
f 51/106/18 47/105/18 48/104/18
f 47/105/18 51/106/18 44/107/18
f 44/107/18 51/106/18 43/108/18
f 52/111/19 48/110/19 50/109/19
f 48/110/19 52/111/19 51/112/19
f 51/115/20 45/114/20 43/113/20
f 45/114/20 51/115/20 52/116/20
f 49/107/21 52/117/21 50/108/21
f 52/117/21 49/107/21 53/118/21
f 52/117/21 53/118/21 46/105/21
f 52/117/21 46/105/21 45/104/21
f 54/119/22 49/114/22 47/113/22
f 49/114/22 54/119/22 53/120/22
f 53/120/22 54/119/22 55/121/22
f 46/109/23 56/122/23 44/110/23
f 56/122/23 46/109/23 53/123/23
f 56/122/23 53/123/23 55/124/23
f 56/126/21 55/118/21 54/125/21
f 56/126/24 47/107/24 44/105/24
f 47/107/24 56/126/24 54/125/24

