# Created by Kenney (www.kenney.nl)

mtllib SpeedUp.mtl

g mergedBlocks

v -0.5 -0.0004634857 0.1000001
v -0.4 -0.0004634857 0.1000001
v -0.5 -0.0004634857 -0.1000009
v -0.4 -0.0004634857 -0.1000009
v 0.4 -0.0004634857 0.1000001
v 0.5 -0.0004634857 0.1000001
v 0.4 -0.0004634857 -0.1000009
v 0.5 -0.0004634857 -0.1000009
v 1.443823E-15 0.9995413 0.09999994
v 1.443823E-15 0.9995413 -0.100001
v 1.443823E-15 0.7759334 -0.100001
v 0.3484797 0.09953696 -4.470348E-07
v 1.443823E-15 0.7759334 -5.215406E-07
v -0.3484797 0.09953696 -4.470348E-07
v -0.5 0.9995365 0.1000001
v -0.4 0.9995365 0.1000001
v -0.5 0.9995365 -0.1000009
v -0.4 0.9995365 -0.1000009
v 0.4 0.9995365 0.1000001
v 0.5 0.9995365 0.1000001
v 0.4 0.9995365 -0.1000009
v 0.5 0.9995365 -0.1000009
v 1.443823E-15 1.999541 0.09999994
v 1.443823E-15 1.999541 -0.100001
v 1.443823E-15 1.775933 -0.100001
v 0.3484797 1.099537 -4.470348E-07
v 1.443823E-15 1.775934 -5.215406E-07
v -0.3484797 1.099537 -4.470348E-07
v 0.5000039 0.999537 -0.0999999
v 0.4000032 0.999537 -0.0999999
v 0.5000039 0.999537 0.1000009
v 0.4000031 0.999537 0.1000009
v -0.4000032 0.999537 -0.09999998
v -0.5000039 0.999537 -0.09999999
v -0.4000032 0.999537 0.1000008
v -0.5000039 0.999537 0.1000008
v -1.443834E-15 1.999541 -0.1000001
v -1.748463E-08 1.999541 0.1000007
v -1.748463E-08 1.775933 0.1000008
v -0.3484825 1.099537 4.097819E-07
v -8.742314E-09 1.775933 3.650784E-07
v 0.3484825 1.099537 4.693866E-07
v 0.500003 -0.000462532 -0.0999999
v 0.4000024 -0.000462532 -0.0999999
v 0.500003 -0.000462532 0.1000007
v 0.4000024 -0.000462532 0.1000007
v -0.4000024 -0.000462532 -0.09999998
v -0.500003 -0.000462532 -0.09999999
v -0.4000024 -0.000462532 0.1000006
v -0.500003 -0.000462532 0.1000006
v -1.443831E-15 0.9995403 -0.1000001
v -1.748461E-08 0.9995403 0.1000005
v -1.748461E-08 0.7759329 0.1000006
v -0.3484818 0.09953773 3.129244E-07
v -8.742306E-09 0.7759329 2.682209E-07
v 0.3484818 0.09953773 3.72529E-07

vn 0 -1.000005 1.192099E-07
vn 0 1.192099E-07 1.000005
vn 0.8944272 0.4472158 -5.331227E-08
vn -0.8944272 0.4472158 -5.331227E-08
vn 0 -1.192099E-07 -1.000005
vn -0.888956 -0.4579949 5.459724E-08
vn 0.888956 -0.4579949 5.459724E-08
vn 0 -0.7071103 -0.7071102
vn 0 -0.9999961 1.192088E-07
vn 8.742244E-08 1.192088E-07 -0.9999961
vn -0.8944272 0.4472118 -1.315051E-07
vn 0.8944272 0.4472118 2.48815E-08
vn -8.742244E-08 -1.192088E-07 0.9999961
vn 0.888956 -0.4579909 1.323118E-07
vn -0.888956 -0.4579909 -2.311823E-08
vn -6.1817E-08 -0.707104 0.707104
vn 0 -0.999997 1.192089E-07
vn 8.742252E-08 1.192089E-07 -0.999997
vn -0.8944272 0.4472122 -1.315051E-07
vn 0.8944272 0.4472122 2.488146E-08
vn -8.742252E-08 -1.192089E-07 0.999997
vn 0.888956 -0.4579913 1.323118E-07
vn -0.888956 -0.4579913 -2.311818E-08
vn -6.181705E-08 -0.7071047 0.7071047

vt 0.5 -0.1000001
vt 0.4 -0.1000001
vt 0.5 0.1000009
vt 0.4 0.1000009
vt -0.4 -0.1000001
vt -0.5 -0.1000001
vt -0.4 0.1000009
vt -0.5 0.1000009
vt 0.5 -0.000463488
vt 0.4 -0.000463488
vt 1.443823E-15 0.9995413
vt -0.4 -0.000463488
vt -0.5 -0.000463488
vt 0.1000009 -0.0004635118
vt -0.1000001 -0.000463488
vt 0.100001 0.9995413
vt -0.09999994 0.9995413
vt 0.1000001 -0.000463488
vt -0.1000009 -0.0004635118
vt 0.09999994 0.9995413
vt -0.100001 0.9995413
vt -0.5 -0.0004635118
vt -1.443823E-15 0.9995413
vt -0.4 -0.0004635118
vt -1.443823E-15 0.7759334
vt 0.4 -0.0004635118
vt 0.5 -0.0004635118
vt -4.410192E-07 0.09953696
vt -0.100001 0.7759334
vt -5.216519E-07 0.7759334
vt 4.410192E-07 0.09953696
vt 0.100001 0.7759334
vt 5.216519E-07 0.7759334
vt -0.3484797 0.09953696
vt 0.3484797 0.09953696
vt 0.3484797 4.410192E-07
vt -0.3484797 4.410192E-07
vt 0.5 0.9995365
vt 0.4 0.9995365
vt 1.443823E-15 1.999541
vt -0.4 0.9995365
vt -0.5 0.9995365
vt 0.1000009 0.9995365
vt -0.1000001 0.9995365
vt 0.100001 1.999541
vt -0.09999994 1.999541
vt 0.1000001 0.9995365
vt -0.1000009 0.9995365
vt 0.09999994 1.999541
vt -0.100001 1.999541
vt -1.443823E-15 1.999541
vt -1.443823E-15 1.775933
vt -4.410192E-07 1.099537
vt -0.100001 1.775933
vt -5.216519E-07 1.775933
vt 4.410192E-07 1.099537
vt 0.100001 1.775933
vt 5.216519E-07 1.775933
vt -0.3484797 1.099537
vt 0.3484797 1.099537
vt -0.5000039 0.0999999
vt -0.4000032 0.0999999
vt -0.5000039 -0.1000009
vt -0.4000031 -0.1000009
vt 0.4000032 0.09999998
vt 0.5000039 0.09999999
vt 0.4000032 -0.1000008
vt 0.5000039 -0.1000008
vt 0.5000039 0.999537
vt 0.4000032 0.999537
vt 1.443834E-15 1.999541
vt -0.4000032 0.999537
vt -0.5000039 0.999537
vt 0.1000008 0.999537
vt -0.09999999 0.999537
vt 0.1000007 1.999541
vt -0.1000001 1.999541
vt 0.0999999 0.999537
vt -0.1000009 0.999537
vt 0.1000001 1.999541
vt -0.1000007 1.999541
vt -1.748463E-08 1.999541
vt -1.748463E-08 1.775933
vt 0.4000031 0.999537
vt 0.09999998 0.999537
vt -0.1000008 0.999537
vt -4.106642E-07 1.099537
vt -0.1000008 1.775933
vt -3.604969E-07 1.775933
vt -0.0999999 0.999537
vt 4.715948E-07 1.099537
vt 0.1000009 0.999537
vt 0.1000008 1.775933
vt 3.604969E-07 1.775933
vt -0.3484825 1.099537
vt -8.742314E-09 1.775933
vt 0.3484825 1.099537
vt 0.3484825 -4.106642E-07
vt -0.3484825 -4.715948E-07
vt -0.500003 0.0999999
vt -0.4000024 0.0999999
vt -0.500003 -0.1000007
vt -0.4000024 -0.1000007
vt 0.4000024 0.09999998
vt 0.500003 0.09999999
vt 0.4000024 -0.1000006
vt 0.500003 -0.1000006
vt 0.500003 -0.0004625334
vt 0.4000024 -0.0004625334
vt 1.443831E-15 0.9995403
vt -0.4000024 -0.0004625334
vt -0.500003 -0.0004625334
vt 0.1000006 -0.0004625572
vt -0.09999999 -0.0004625334
vt 0.1000005 0.9995403
vt -0.1000001 0.9995403
vt 0.0999999 -0.0004625334
vt -0.1000007 -0.0004625572
vt 0.1000001 0.9995403
vt -0.1000005 0.9995403
vt -0.500003 -0.0004625572
vt -1.748461E-08 0.9995403
vt -0.4000024 -0.0004625572
vt -1.748461E-08 0.7759329
vt 0.4000024 -0.0004625572
vt 0.500003 -0.0004625572
vt 0.09999998 -0.0004625334
vt -0.1000006 -0.0004625572
vt -3.152968E-07 0.09953772
vt -0.1000006 0.7759329
vt -2.651295E-07 0.7759329
vt -0.0999999 -0.0004625334
vt 3.762273E-07 0.09953772
vt 0.1000007 -0.0004625572
vt 0.1000006 0.7759329
vt 2.651295E-07 0.7759329
vt -0.3484818 0.09953772
vt -8.742306E-09 0.7759329
vt 0.3484818 0.09953772
vt -0.3484818 -3.762273E-07
vt 0.3484818 -3.152968E-07

usemtl metalGreen(Clone)

f 3/3/1 2/2/1 1/1/1
f 2/2/1 3/3/1 4/4/1
f 7/7/1 6/6/1 5/5/1
f 6/6/1 7/7/1 8/8/1
f 9/11/2 5/10/2 6/9/2
f 5/10/2 9/11/2 2/12/2
f 2/12/2 9/11/2 1/13/2
f 10/16/3 6/15/3 8/14/3
f 6/15/3 10/16/3 9/17/3
f 9/20/4 3/19/4 1/18/4
f 3/19/4 9/20/4 10/21/4
f 7/24/5 10/23/5 8/22/5
f 10/23/5 7/24/5 11/25/5
f 10/23/5 11/25/5 4/26/5
f 10/23/5 4/26/5 3/27/5
f 12/28/6 7/19/6 5/18/6
f 7/19/6 12/28/6 11/29/6
f 11/29/6 12/28/6 13/30/6
f 4/14/7 14/31/7 2/15/7
f 14/31/7 4/14/7 11/32/7
f 14/31/7 11/32/7 13/33/7
f 14/35/5 13/25/5 12/34/5
f 14/36/8 5/5/8 2/2/8
f 5/5/8 14/36/8 12/37/8
f 17/3/1 16/2/1 15/1/1
f 16/2/1 17/3/1 18/4/1
f 21/7/1 20/6/1 19/5/1
f 20/6/1 21/7/1 22/8/1
f 23/40/2 19/39/2 20/38/2
f 19/39/2 23/40/2 16/41/2
f 16/41/2 23/40/2 15/42/2
f 24/45/3 20/44/3 22/43/3
f 20/44/3 24/45/3 23/46/3
f 23/49/4 17/48/4 15/47/4
f 17/48/4 23/49/4 24/50/4
f 21/41/5 24/51/5 22/42/5
f 24/51/5 21/41/5 25/52/5
f 24/51/5 25/52/5 18/39/5
f 24/51/5 18/39/5 17/38/5
f 26/53/6 21/48/6 19/47/6
f 21/48/6 26/53/6 25/54/6
f 25/54/6 26/53/6 27/55/6
f 18/43/7 28/56/7 16/44/7
f 28/56/7 18/43/7 25/57/7
f 28/56/7 25/57/7 27/58/7
f 28/60/5 27/52/5 26/59/5
f 28/36/8 19/5/8 16/2/8
f 19/5/8 28/36/8 26/37/8
f 31/63/9 30/62/9 29/61/9
f 30/62/9 31/63/9 32/64/9
f 35/67/9 34/66/9 33/65/9
f 34/66/9 35/67/9 36/68/9
f 37/71/10 33/70/10 34/69/10
f 33/70/10 37/71/10 30/72/10
f 30/72/10 37/71/10 29/73/10
f 38/76/11 34/75/11 36/74/11
f 34/75/11 38/76/11 37/77/11
f 37/80/12 31/79/12 29/78/12
f 31/79/12 37/80/12 38/81/12
f 35/72/13 38/82/13 36/73/13
f 38/82/13 35/72/13 39/83/13
f 38/82/13 39/83/13 32/84/13
f 38/82/13 32/84/13 31/69/13
f 40/87/14 35/86/14 33/85/14
f 35/86/14 40/87/14 39/88/14
f 39/88/14 40/87/14 41/89/14
f 32/92/15 42/91/15 30/90/15
f 42/91/15 32/92/15 39/93/15
f 42/91/15 39/93/15 41/94/15
f 42/97/13 41/96/13 40/95/13
f 42/97/16 33/72/16 30/70/16
f 33/65/16 42/99/16 40/98/16
f 45/102/17 44/101/17 43/100/17
f 44/101/17 45/102/17 46/103/17
f 49/106/17 48/105/17 47/104/17
f 48/105/17 49/106/17 50/107/17
f 51/110/18 47/109/18 48/108/18
f 47/109/18 51/110/18 44/111/18
f 44/111/18 51/110/18 43/112/18
f 52/115/19 48/114/19 50/113/19
f 48/114/19 52/115/19 51/116/19
f 51/119/20 45/118/20 43/117/20
f 45/118/20 51/119/20 52/120/20
f 49/123/21 52/122/21 50/121/21
f 52/122/21 49/123/21 53/124/21
f 52/122/21 53/124/21 46/125/21
f 52/122/21 46/125/21 45/126/21
f 54/129/22 49/128/22 47/127/22
f 49/128/22 54/129/22 53/130/22
f 53/130/22 54/129/22 55/131/22
f 46/134/23 56/133/23 44/132/23
f 56/133/23 46/134/23 53/135/23
f 56/133/23 53/135/23 55/136/23
f 56/139/21 55/138/21 54/137/21
f 56/140/24 47/104/24 44/101/24
f 47/104/24 56/140/24 54/141/24

