# Created by Kenney (www.kenney.nl)

mtllib Tree.mtl

g mergedBlocks

v 0 1 0.4330127
v -0.375 1 0.2165064
v -1.443823E-15 1.2 0.5773503
v -0.5 1.2 0.2886751
v 0.5 1.2 0.2886751
v 0.5 1.5 0.2886751
v -1.443823E-15 1.5 0.5773503
v 0.5 1.5 -0.2886751
v 0.5 1.2 -0.2886751
v 0.375 1 0.2165064
v 0.375 1 -0.2165064
v 0 1 -0.4330127
v -0.375 1 -0.2165064
v -0.5 1.2 -0.2886751
v -1.443823E-15 1.2 -0.5773503
v -0.5 1.5 -0.2886751
v -1.443823E-15 1.5 -0.5773503
v -0.5 1.5 0.2886751
v 0.25 2 -0.1443376
v 0.25 2 0.1443376
v 0 2 -0.2886751
v 0 2 0.2886751
v -0.25 2 -0.1443376
v -0.25 2 0.1443376
v 0.181066 0 -0.075
v 0.075 0 -0.181066
v 0.181066 0 0.075
v 0.07499999 0 0.181066
v -0.075 0 -0.181066
v -0.075 0 0.181066
v -0.181066 0 -0.075
v -0.181066 0 0.075
v 0.181066 0.5 -0.075
v 0.181066 0.5 0.075
v 0.075 0.5 -0.181066
v 0.07499999 0.5 0.181066
v -0.075 0.5 -0.181066
v -0.075 0.5 0.181066
v -0.181066 0.5 -0.075
v -0.181066 0.5 0.075
v 0.181066 1 -0.075
v 0.181066 1 0.075
v 0.075 1 -0.181066
v 0.07499999 1 0.181066
v -0.075 1 -0.181066
v -0.075 1 0.181066
v -0.181066 1 -0.075
v -0.181066 1 0.075

vn -0.4239992 -0.529999 0.7343881
vn 0.5 0 0.8660254
vn 1 0 0
vn 0 -1 0
vn 0.4239992 -0.529999 0.7343881
vn -0.5 0 -0.8660254
vn -1 0 0
vn -0.5 0 0.8660254
vn 0.5 0 -0.8660254
vn 0.8479983 -0.529999 0
vn -0.4239992 -0.529999 -0.7343881
vn 0.4239992 -0.529999 -0.7343881
vn -0.8479983 -0.529999 0
vn 0 1 0
vn 0.4472136 0.4472136 0.7745967
vn 0.4472136 0.4472136 -0.7745967
vn -0.8944272 0.4472136 0
vn -0.4472136 0.4472136 -0.7745967
vn -0.4472136 0.4472136 0.7745967
vn 0.8944272 0.4472136 0
vn -0.7071068 0 -0.7071068
vn -0.7071068 0 0.7071067
vn 0 0 1
vn 0 0 -1
vn 0.7071067 0 0.7071068
vn 0.7071068 0 -0.7071067

vt 0 1
vt -0.375 1
vt -1.443823E-15 1.2
vt -0.5 1.2
vt 0.5 1.2
vt 0.5 1.5
vt -1.443823E-15 1.5
vt 0.2886751 1.5
vt 0.2886751 1.2
vt -0.2886751 1.5
vt -0.2886751 1.2
vt -0.375 -0.2165064
vt -0.375 0.2165064
vt 0 -0.4330127
vt 0 0.4330127
vt 0.375 -0.2165064
vt 0.375 0.2165064
vt 0.375 1
vt 1.443823E-15 1.2
vt 1.443823E-15 1.5
vt -0.5 1.5
vt 0.2165064 1
vt -0.2165064 1
vt -0.25 -0.1443376
vt -0.25 0.1443376
vt 0 -0.2886751
vt 0 0.2886751
vt 0.25 -0.1443376
vt 0.25 0.1443376
vt 0.25 2
vt 0 2
vt -0.25 2
vt -0.1443376 2
vt 0.1443376 2
vt -0.181066 0.075
vt -0.075 0.181066
vt -0.181066 -0.075
vt -0.07499999 -0.181066
vt 0.075 0.181066
vt 0.075 -0.181066
vt 0.181066 0.075
vt 0.181066 -0.075
vt -0.181066 -0.075
vt -0.181066 0.075
vt -0.075 -0.181066
vt -0.07499999 0.181066
vt 0.181066 0.5
vt 0.075 0.5
vt 0.181066 1
vt 0.075 1
vt 0.075 1
vt 0.075 0.5
vt -0.075 1
vt -0.075 0.5
vt -0.181066 0.5
vt -0.181066 1
vt 0.07499999 0.5
vt 0.07499999 1
vt 0.181066 0.5
vt 0.181066 1

usemtl foliage(Clone)

f 3/3/1 2/2/1 1/1/1
f 2/2/1 3/3/1 4/4/1
f 6/6/2 3/3/2 5/5/2
f 3/3/2 6/6/2 7/7/2
f 6/10/3 9/9/3 8/8/3
f 9/9/3 6/10/3 5/11/3
f 1/14/4 11/13/4 10/12/4
f 11/13/4 1/14/4 12/15/4
f 12/15/4 1/14/4 2/16/4
f 12/15/4 2/16/4 13/17/4
f 5/5/5 1/1/5 10/18/5
f 1/1/5 5/5/5 3/3/5
f 16/6/6 15/19/6 14/5/6
f 15/19/6 16/6/6 17/20/6
f 4/9/7 16/10/7 14/11/7
f 16/10/7 4/9/7 18/8/7
f 7/7/8 4/4/8 3/3/8
f 4/4/8 7/7/8 18/21/8
f 17/20/9 9/4/9 15/19/9
f 9/4/9 17/20/9 8/21/9
f 5/11/10 11/22/10 9/9/10
f 11/22/10 5/11/10 10/23/10
f 14/5/11 12/1/11 13/18/11
f 12/1/11 14/5/11 15/19/11
f 15/19/12 11/2/12 12/1/12
f 11/2/12 15/19/12 9/4/12
f 13/23/13 4/9/13 14/11/13
f 4/9/13 13/23/13 2/22/13
f 21/26/14 20/25/14 19/24/14
f 20/25/14 21/26/14 22/27/14
f 22/27/14 21/26/14 23/28/14
f 22/27/14 23/28/14 24/29/14
f 20/30/15 7/7/15 6/6/15
f 7/7/15 20/30/15 22/31/15
f 21/31/16 8/21/16 17/20/16
f 8/21/16 21/31/16 19/32/16
f 18/8/17 23/33/17 16/10/17
f 23/33/17 18/8/17 24/34/17
f 23/30/18 17/20/18 16/6/18
f 17/20/18 23/30/18 21/31/18
f 22/31/19 18/21/19 7/7/19
f 18/21/19 22/31/19 24/32/19
f 19/34/20 6/10/20 8/8/20
f 6/10/20 19/34/20 20/33/20

usemtl wood(Clone)

f 27/37/4 26/36/4 25/35/4
f 26/36/4 27/37/4 28/38/4
f 26/36/4 28/38/4 29/39/4
f 29/39/4 28/38/4 30/40/4
f 29/39/4 30/40/4 31/41/4
f 31/41/4 30/40/4 32/42/4
f 35/45/14 34/44/14 33/43/14
f 34/44/14 35/45/14 36/46/14
f 36/46/14 35/45/14 37/40/14
f 36/46/14 37/40/14 38/39/14
f 38/39/14 37/40/14 39/42/14
f 38/39/14 39/42/14 40/41/14
f 39/49/21 29/48/21 31/47/21
f 29/48/21 39/49/21 37/50/21
f 34/53/3 25/52/3 33/51/3
f 25/52/3 34/53/3 27/54/3
f 30/54/22 40/56/22 32/55/22
f 40/56/22 30/54/22 38/53/22
f 36/58/23 30/54/23 28/57/23
f 30/54/23 36/58/23 38/53/23
f 37/50/24 26/54/24 29/48/24
f 26/54/24 37/50/24 35/53/24
f 34/60/25 28/57/25 27/59/25
f 28/57/25 34/60/25 36/58/25
f 33/51/26 26/47/26 35/49/26
f 26/47/26 33/51/26 25/52/26
f 32/48/7 39/53/7 31/54/7
f 39/53/7 32/48/7 40/50/7
f 34/37/4 35/36/4 33/35/4
f 35/36/4 34/37/4 36/38/4
f 35/36/4 36/38/4 37/39/4
f 37/39/4 36/38/4 38/40/4
f 37/39/4 38/40/4 39/41/4
f 39/41/4 38/40/4 40/42/4
f 43/45/14 42/44/14 41/43/14
f 42/44/14 43/45/14 44/46/14
f 44/46/14 43/45/14 45/40/14
f 44/46/14 45/40/14 46/39/14
f 46/39/14 45/40/14 47/42/14
f 46/39/14 47/42/14 48/41/14
f 47/49/21 37/48/21 39/47/21
f 37/48/21 47/49/21 45/50/21
f 42/53/3 33/52/3 41/51/3
f 33/52/3 42/53/3 34/54/3
f 38/54/22 48/56/22 40/55/22
f 48/56/22 38/54/22 46/53/22
f 44/58/23 38/54/23 36/57/23
f 38/54/23 44/58/23 46/53/23
f 45/50/24 35/54/24 37/48/24
f 35/54/24 45/50/24 43/53/24
f 42/60/25 36/57/25 34/59/25
f 36/57/25 42/60/25 44/58/25
f 41/51/26 35/47/26 43/49/26
f 35/47/26 41/51/26 33/52/26
f 40/48/7 47/53/7 39/54/7
f 47/53/7 40/48/7 48/50/7

